<svg xmlns="http://www.w3.org/2000/svg" viewBox="0 0 162.78 86.29"><defs><style>.a{fill:none;stroke:#000;stroke-linecap:round;stroke-linejoin:round;stroke-width:3px;}</style></defs><title>brand_logo_custom</title><path class="a" d="M694.5,412.5s-1-10-9-13c-7-1-10,4-11,13,0,0-2,17,10,23,15,8.06,34-21,34-21a159.13,159.13,0,0,0,10.2-18.28.42.42,0,0,1,.8.18v30.33a.86.86,0,0,1-1.39.67L703.8,408.13a.8.8,0,0,0-1.3.63v35a4.64,4.64,0,0,0,6.81,4.09h0l24.47-14.29a3,3,0,0,0,1.5-2.61V388.24a3.41,3.41,0,0,0-1.69-2.95L721.14,378a7,7,0,0,0-6.45.77,24.31,24.31,0,0,1-24.25-.07s-3.31-2.18-6.63-.7l-12.4,7.27a3.4,3.4,0,0,0-1.69,2.95V431a3,3,0,0,0,1.49,2.61l27.48,16.1c2.16,1.21,2.81,1.8,3.81,1.78h0c44.22,0,72.79-32.83,78.81-40.42a2.51,2.51,0,0,0,0-3.13c-5.51-6.95-29.82-34.91-67.65-39.71-3.6-.46-11.15,5.28-11.15,5.28s-7.56-5.74-11.15-5.28c-43.28,5.49-68.85,41.28-68.85,41.28l-.22.45a2,2,0,0,0,.24,2.14c7,8.51,31.75,35.3,69.35,39" transform="translate(-620.57 -366.69)"/></svg>