<?xml version="1.0" encoding="utf-8"?>
<!-- Generator: Adobe Illustrator 16.0.0, SVG Export Plug-In . SVG Version: 6.00 Build 0)  -->
<!DOCTYPE svg PUBLIC "-//W3C//DTD SVG 1.1//EN" "http://www.w3.org/Graphics/SVG/1.1/DTD/svg11.dtd">
<svg version="1.1" id="Layer_1" xmlns="http://www.w3.org/2000/svg" xmlns:xlink="http://www.w3.org/1999/xlink" x="0px" y="0px"
	 width="180px" height="37px" viewBox="0 0 180 37" enable-background="new 0 0 180 37" xml:space="preserve">
<path fill="#FFFFFF" d="M18.465,0.035C8.283,0.035,0,8.317,0,18.499s8.283,18.466,18.465,18.466c4.044,0,7.884-1.285,11.106-3.718
	c0.181-0.137,0.301-0.341,0.331-0.564c0.031-0.227-0.029-0.454-0.167-0.634l-7.185-9.405l7.376-8.472
	c0.061-0.041,0.143-0.09,0.198-0.113c0.056,0.015,0.1,0.071,0.1,0.132v16.567c0,0.304,0.163,0.586,0.427,0.738
	s0.589,0.152,0.853,0.001l0.051-0.029c0.07-0.039,0.133-0.09,0.188-0.146c3.344-3.455,5.185-8.009,5.185-12.823
	C36.928,8.317,28.646,0.035,18.465,0.035z M13.653,14.148c0.014-0.044,0.049-0.078,0.092-0.089c0.045,0.019,0.113,0.057,0.174,0.098
	l6.382,8.357c-1.744,1.557-3.644,2.316-5.784,2.316c-0.291,0-0.579-0.015-0.863-0.043V14.191
	C13.654,14.177,13.654,14.162,13.653,14.148z M27.843,32.386c-2.771,1.881-5.997,2.871-9.378,2.871
	c-1.671,0-3.287-0.245-4.811-0.703v-8.052c0.285,0.023,0.573,0.036,0.863,0.036c2.542,0,4.784-0.873,6.824-2.664L27.843,32.386z
	 M31.932,28.469V14.191c0-1.017-0.826-1.845-1.842-1.845c-0.558,0-1.082,0.37-1.28,0.529c-0.04,0.032-0.077,0.068-0.111,0.106
	l-7.206,8.278l-6.291-8.235c-0.042-0.054-0.089-0.103-0.143-0.146c-0.197-0.16-0.718-0.532-1.28-0.532
	c-1.015,0-1.84,0.828-1.84,1.845c0,0.039,0.003,0.076,0.008,0.115v10.128c-3.429-1.093-5.919-4.312-5.919-8.099
	c0-4.681,3.809-8.489,8.489-8.489c2.932,0,5.619,1.482,7.189,3.964c0.251,0.399,0.778,0.517,1.177,0.265s0.518-0.779,0.266-1.178
	c-1.885-2.979-5.111-4.758-8.632-4.758c-5.622,0-10.196,4.573-10.196,10.196c0,4.738,3.244,8.732,7.626,9.875v7.728
	c-6.012-2.547-10.24-8.508-10.24-15.438c0-9.239,7.517-16.757,16.758-16.757c9.239,0,16.756,7.518,16.756,16.757
	C35.221,22.132,34.065,25.601,31.932,28.469z M55.228,18.501c0,3.609,2.403,7.265,6.997,7.265c2.938,0,4.435-1.354,5.512-2.68
	c0.236-0.31,0.526-0.457,0.909-0.457c0.683,0,1.198,0.497,1.198,1.155c0,0.343-0.166,0.589-0.286,0.768
	c-1.263,1.623-3.549,3.541-7.333,3.541c-5.507,0-9.503-4.034-9.503-9.592c0-5.56,3.996-9.595,9.503-9.595
	c3.78,0,6.065,1.911,7.316,3.515l0.025,0.036c0.124,0.189,0.278,0.426,0.278,0.757c0,0.655-0.515,1.149-1.198,1.149
	c-0.385,0-0.677-0.147-0.919-0.46c-1.073-1.32-2.57-2.675-5.502-2.675C57.63,11.228,55.228,14.886,55.228,18.501z M91.679,10.241
	v10.147c0,4.754-3.012,7.706-7.861,7.706c-0.071,0-0.137-0.008-0.203-0.016c-0.043-0.005-0.086-0.011-0.131-0.012
	c-4.646-0.139-7.53-3.082-7.53-7.679V10.241c0-0.521,0.319-0.973,0.813-1.151c0.117-0.038,0.254-0.082,0.411-0.082
	c0.687,0,1.225,0.542,1.225,1.233V20.49c0,3.355,1.713,5.113,5.094,5.224l0.134,0.006c0.062,0.003,0.122,0.006,0.187,0.006
	c3.59,0,5.412-1.763,5.412-5.235V10.241c0-0.521,0.32-0.973,0.815-1.151c0.12-0.039,0.256-0.082,0.411-0.082
	C91.142,9.008,91.679,9.55,91.679,10.241z M109.337,17.707c1.325-0.833,1.946-2.021,1.946-3.696c0-2.865-2.268-4.79-5.643-4.79
	h-5.065c-0.71,0-1.227,0.517-1.227,1.23v16.095c0,0.675,0.55,1.224,1.227,1.224h5.7c4.402,0,6.408-2.741,6.408-5.289
	C112.684,20.22,111.444,18.471,109.337,17.707z M106.382,25.53h-4.58v-6.389h4.501c2.462,0,3.932,1.19,3.932,3.183
	C110.234,24.3,108.759,25.53,106.382,25.53z M101.802,16.896V11.47h3.865c2.041,0,3.166,0.959,3.166,2.699
	c0,1.314-0.949,2.727-3.032,2.727H101.802z M130.819,26.625c0,0.632-0.513,1.146-1.144,1.146h-9.468
	c-0.687,0-1.227-0.537-1.227-1.225V10.451c0-0.689,0.54-1.229,1.227-1.229h8.885c0.632,0,1.146,0.515,1.146,1.149
	c0,0.636-0.514,1.153-1.146,1.153h-7.659v5.535h6.681c0.632,0,1.146,0.515,1.146,1.149c0,0.633-0.514,1.147-1.146,1.147h-6.681
	v6.123h8.242C130.307,25.478,130.819,25.992,130.819,26.625z M160.94,11.082h0.019v15.702c0,0.685-0.517,1.201-1.201,1.201
	c-0.658,0-1.172-0.527-1.172-1.201V11.705l-5.904,6.946c-0.27,0.276-0.526,0.391-0.87,0.391c-0.362,0-0.647-0.127-0.87-0.39
	l-5.887-6.721v14.853c0,0.674-0.515,1.201-1.171,1.201c-0.685,0-1.202-0.517-1.202-1.201V10.809l0.024-0.015
	c0.119-1.017,0.961-1.786,1.968-1.786c0.436,0,0.909,0.189,1.367,0.546l0.033,0.033l5.736,6.539l5.645-6.454
	c0.527-0.448,1.013-0.664,1.483-0.664c1.036,0,1.888,0.793,1.979,1.824l0.007,0.006L160.94,11.082z M180,26.625
	c0,0.632-0.512,1.146-1.142,1.146h-9.469c-0.687,0-1.225-0.537-1.225-1.225V10.451c0-0.689,0.538-1.229,1.225-1.229h8.885
	c0.632,0,1.146,0.515,1.146,1.149c0,0.636-0.514,1.153-1.146,1.153h-7.656v5.535h6.681c0.631,0,1.144,0.515,1.144,1.149
	c0,0.633-0.513,1.147-1.144,1.147h-6.681v6.123h8.24C179.488,25.478,180,25.992,180,26.625z"/>
</svg>
